<mxfile host="Electron" agent="Mozilla/5.0 (X11; Linux x86_64) AppleWebKit/537.36 (KHTML, like Gecko) draw.io/26.0.16 Chrome/132.0.6834.196 Electron/34.2.0 Safari/537.36" version="26.0.16">
  <diagram name="Page-1" id="KMWjnK7c0M35UP8krXKx">
    <mxGraphModel dx="2727" dy="1099" grid="1" gridSize="10" guides="1" tooltips="1" connect="1" arrows="1" fold="1" page="1" pageScale="1" pageWidth="850" pageHeight="1100" math="0" shadow="0">
      <root>
        <mxCell id="0" />
        <mxCell id="1" parent="0" />
        <mxCell id="cVDitgE7gGw9NUzEYhYK-6" style="rounded=0;orthogonalLoop=1;jettySize=auto;endArrow=none;startFill=0;" parent="1" source="cVDitgE7gGw9NUzEYhYK-1" target="cVDitgE7gGw9NUzEYhYK-4" edge="1">
          <mxGeometry relative="1" as="geometry" />
        </mxCell>
        <mxCell id="cVDitgE7gGw9NUzEYhYK-38" value="(1,1)" style="edgeLabel;align=center;verticalAlign=middle;resizable=0;points=[];" parent="cVDitgE7gGw9NUzEYhYK-6" vertex="1" connectable="0">
          <mxGeometry x="-0.233" relative="1" as="geometry">
            <mxPoint x="-7" y="3" as="offset" />
          </mxGeometry>
        </mxCell>
        <mxCell id="cVDitgE7gGw9NUzEYhYK-1" value="Object" style="rounded=0;fillColor=#d5e8d4;strokeColor=#82b366;" parent="1" vertex="1">
          <mxGeometry x="330" y="720" width="120" height="30" as="geometry" />
        </mxCell>
        <mxCell id="cVDitgE7gGw9NUzEYhYK-3" value="SharedObject" style="rounded=0;fillColor=#d5e8d4;strokeColor=#82b366;" parent="1" vertex="1">
          <mxGeometry x="510" y="920" width="110" height="50" as="geometry" />
        </mxCell>
        <mxCell id="cVDitgE7gGw9NUzEYhYK-4" value="isCompiledBy" style="rhombus;fillColor=#fff2cc;strokeColor=#d6b656;" parent="1" vertex="1">
          <mxGeometry x="461.75" y="755" width="105" height="50" as="geometry" />
        </mxCell>
        <mxCell id="cVDitgE7gGw9NUzEYhYK-14" style="rounded=0;orthogonalLoop=1;jettySize=auto;exitX=0.75;exitY=0;exitDx=0;exitDy=0;endArrow=none;startFill=0;" parent="1" source="cVDitgE7gGw9NUzEYhYK-5" target="cVDitgE7gGw9NUzEYhYK-8" edge="1">
          <mxGeometry relative="1" as="geometry" />
        </mxCell>
        <mxCell id="cVDitgE7gGw9NUzEYhYK-5" value="Compiler" style="rounded=0;fillColor=#d5e8d4;strokeColor=#82b366;" parent="1" vertex="1">
          <mxGeometry x="600" y="765" width="105" height="40" as="geometry" />
        </mxCell>
        <mxCell id="cVDitgE7gGw9NUzEYhYK-7" style="rounded=0;orthogonalLoop=1;jettySize=auto;endArrow=none;startFill=0;" parent="1" source="cVDitgE7gGw9NUzEYhYK-4" target="cVDitgE7gGw9NUzEYhYK-5" edge="1">
          <mxGeometry relative="1" as="geometry">
            <mxPoint x="450" y="730" as="sourcePoint" />
            <mxPoint x="484" y="709" as="targetPoint" />
          </mxGeometry>
        </mxCell>
        <mxCell id="cVDitgE7gGw9NUzEYhYK-8" value="idString" style="ellipse;fontStyle=0;fillColor=#dae8fc;strokeColor=#6c8ebf;" parent="1" vertex="1">
          <mxGeometry x="632.5" y="720" width="100" height="35" as="geometry" />
        </mxCell>
        <mxCell id="cVDitgE7gGw9NUzEYhYK-11" value="name" style="ellipse;fillColor=#dae8fc;strokeColor=#6c8ebf;" parent="1" vertex="1">
          <mxGeometry x="121.25" y="630" width="80" height="30" as="geometry" />
        </mxCell>
        <mxCell id="cVDitgE7gGw9NUzEYhYK-12" value="sourceHash" style="ellipse;fillColor=#dae8fc;strokeColor=#6c8ebf;" parent="1" vertex="1">
          <mxGeometry x="110" y="660" width="102.5" height="30" as="geometry" />
        </mxCell>
        <mxCell id="cVDitgE7gGw9NUzEYhYK-13" value="binaryHash" style="ellipse;fontStyle=4" parent="1" vertex="1">
          <mxGeometry x="110" y="600" width="102.5" height="30" as="geometry" />
        </mxCell>
        <mxCell id="cVDitgE7gGw9NUzEYhYK-16" style="rounded=0;orthogonalLoop=1;jettySize=auto;endArrow=none;startFill=0;" parent="1" source="cVDitgE7gGw9NUzEYhYK-13" target="cVDitgE7gGw9NUzEYhYK-1" edge="1">
          <mxGeometry relative="1" as="geometry">
            <mxPoint x="421" y="730" as="sourcePoint" />
            <mxPoint x="477" y="690" as="targetPoint" />
          </mxGeometry>
        </mxCell>
        <mxCell id="cVDitgE7gGw9NUzEYhYK-17" style="rounded=0;orthogonalLoop=1;jettySize=auto;endArrow=none;startFill=0;" parent="1" source="cVDitgE7gGw9NUzEYhYK-12" target="cVDitgE7gGw9NUzEYhYK-1" edge="1">
          <mxGeometry relative="1" as="geometry">
            <mxPoint x="273" y="713" as="sourcePoint" />
            <mxPoint x="340" y="730" as="targetPoint" />
          </mxGeometry>
        </mxCell>
        <mxCell id="cVDitgE7gGw9NUzEYhYK-18" style="rounded=0;orthogonalLoop=1;jettySize=auto;endArrow=none;startFill=0;" parent="1" source="cVDitgE7gGw9NUzEYhYK-11" target="cVDitgE7gGw9NUzEYhYK-1" edge="1">
          <mxGeometry relative="1" as="geometry">
            <mxPoint x="266" y="686" as="sourcePoint" />
            <mxPoint x="366" y="730" as="targetPoint" />
          </mxGeometry>
        </mxCell>
        <mxCell id="cVDitgE7gGw9NUzEYhYK-19" value="sourceLanguage" style="ellipse;fillColor=#dae8fc;strokeColor=#6c8ebf;" parent="1" vertex="1">
          <mxGeometry x="80" y="720" width="132.5" height="30" as="geometry" />
        </mxCell>
        <mxCell id="cVDitgE7gGw9NUzEYhYK-20" style="rounded=0;orthogonalLoop=1;jettySize=auto;endArrow=none;startFill=0;" parent="1" source="cVDitgE7gGw9NUzEYhYK-19" target="cVDitgE7gGw9NUzEYhYK-1" edge="1">
          <mxGeometry relative="1" as="geometry">
            <mxPoint x="273" y="713" as="sourcePoint" />
            <mxPoint x="340" y="730" as="targetPoint" />
          </mxGeometry>
        </mxCell>
        <mxCell id="cVDitgE7gGw9NUzEYhYK-21" value="EnvironmentVariable" style="rounded=0;fillColor=#d5e8d4;strokeColor=#82b366;" parent="1" vertex="1">
          <mxGeometry x="1018.75" y="792.5" width="145" height="45" as="geometry" />
        </mxCell>
        <mxCell id="cVDitgE7gGw9NUzEYhYK-22" value="hash" style="ellipse;fontStyle=4" parent="1" vertex="1">
          <mxGeometry x="1197.5" y="755" width="100" height="35" as="geometry" />
        </mxCell>
        <mxCell id="cVDitgE7gGw9NUzEYhYK-23" style="rounded=0;orthogonalLoop=1;jettySize=auto;endArrow=none;startFill=0;" parent="1" source="cVDitgE7gGw9NUzEYhYK-21" target="cVDitgE7gGw9NUzEYhYK-22" edge="1">
          <mxGeometry relative="1" as="geometry">
            <mxPoint x="1124" y="790" as="sourcePoint" />
            <mxPoint x="1165" y="778" as="targetPoint" />
          </mxGeometry>
        </mxCell>
        <mxCell id="cVDitgE7gGw9NUzEYhYK-24" value="name" style="ellipse;fontStyle=0;fillColor=#dae8fc;strokeColor=#6c8ebf;" parent="1" vertex="1">
          <mxGeometry x="1197.5" y="795" width="100" height="35" as="geometry" />
        </mxCell>
        <mxCell id="cVDitgE7gGw9NUzEYhYK-26" style="rounded=0;orthogonalLoop=1;jettySize=auto;endArrow=none;startFill=0;" parent="1" source="cVDitgE7gGw9NUzEYhYK-21" target="cVDitgE7gGw9NUzEYhYK-24" edge="1">
          <mxGeometry relative="1" as="geometry">
            <mxPoint x="1157.5" y="815" as="sourcePoint" />
            <mxPoint x="1212.5" y="795" as="targetPoint" />
          </mxGeometry>
        </mxCell>
        <mxCell id="cVDitgE7gGw9NUzEYhYK-28" style="rounded=0;orthogonalLoop=1;jettySize=auto;exitX=0;exitY=0.5;exitDx=0;exitDy=0;endArrow=none;startFill=0;" parent="1" source="cVDitgE7gGw9NUzEYhYK-27" target="cVDitgE7gGw9NUzEYhYK-21" edge="1">
          <mxGeometry relative="1" as="geometry" />
        </mxCell>
        <mxCell id="cVDitgE7gGw9NUzEYhYK-27" value="value" style="ellipse;fontStyle=0;fillColor=#dae8fc;strokeColor=#6c8ebf;" parent="1" vertex="1">
          <mxGeometry x="1197.5" y="835" width="100" height="35" as="geometry" />
        </mxCell>
        <mxCell id="cVDitgE7gGw9NUzEYhYK-32" style="rounded=0;orthogonalLoop=1;jettySize=auto;endArrow=none;startFill=0;" parent="1" source="cVDitgE7gGw9NUzEYhYK-1" target="cVDitgE7gGw9NUzEYhYK-168" edge="1">
          <mxGeometry relative="1" as="geometry">
            <mxPoint x="470" y="740" as="sourcePoint" />
            <mxPoint x="653.6458742632617" y="706.9312377210217" as="targetPoint" />
            <Array as="points">
              <mxPoint x="720" y="620" />
            </Array>
          </mxGeometry>
        </mxCell>
        <mxCell id="cVDitgE7gGw9NUzEYhYK-34" value="(0,1)" style="edgeLabel;align=center;verticalAlign=middle;resizable=0;points=[];" parent="cVDitgE7gGw9NUzEYhYK-32" vertex="1" connectable="0">
          <mxGeometry x="-0.2706" relative="1" as="geometry">
            <mxPoint x="-78" y="4" as="offset" />
          </mxGeometry>
        </mxCell>
        <mxCell id="cVDitgE7gGw9NUzEYhYK-39" value="(1,*)" style="edgeLabel;align=center;verticalAlign=middle;resizable=0;points=[];" parent="1" vertex="1" connectable="0">
          <mxGeometry x="585.0040487941023" y="790.0022213785932" as="geometry" />
        </mxCell>
        <mxCell id="cVDitgE7gGw9NUzEYhYK-40" value="hash" style="ellipse;fontStyle=4" parent="1" vertex="1">
          <mxGeometry x="560" y="690" width="100" height="35" as="geometry" />
        </mxCell>
        <mxCell id="cVDitgE7gGw9NUzEYhYK-41" style="rounded=0;orthogonalLoop=1;jettySize=auto;endArrow=none;startFill=0;" parent="1" source="cVDitgE7gGw9NUzEYhYK-5" target="cVDitgE7gGw9NUzEYhYK-40" edge="1">
          <mxGeometry relative="1" as="geometry">
            <mxPoint x="670" y="600" as="sourcePoint" />
            <mxPoint x="711" y="588" as="targetPoint" />
          </mxGeometry>
        </mxCell>
        <mxCell id="cVDitgE7gGw9NUzEYhYK-42" value="isConstructedFrom" style="rhombus;fillColor=#fff2cc;strokeColor=#d6b656;" parent="1" vertex="1">
          <mxGeometry x="322.5" y="800" width="130" height="50" as="geometry" />
        </mxCell>
        <mxCell id="cVDitgE7gGw9NUzEYhYK-43" style="rounded=0;orthogonalLoop=1;jettySize=auto;endArrow=none;startFill=0;" parent="1" source="cVDitgE7gGw9NUzEYhYK-2" target="cVDitgE7gGw9NUzEYhYK-42" edge="1">
          <mxGeometry relative="1" as="geometry">
            <mxPoint x="303.98571428571444" y="914.62" as="sourcePoint" />
            <mxPoint x="329.99574861367836" y="859.9989279112755" as="targetPoint" />
          </mxGeometry>
        </mxCell>
        <mxCell id="cVDitgE7gGw9NUzEYhYK-44" value="(1,*)" style="edgeLabel;align=center;verticalAlign=middle;resizable=0;points=[];" parent="cVDitgE7gGw9NUzEYhYK-43" vertex="1" connectable="0">
          <mxGeometry x="-0.2706" relative="1" as="geometry">
            <mxPoint x="-26" y="5" as="offset" />
          </mxGeometry>
        </mxCell>
        <mxCell id="cVDitgE7gGw9NUzEYhYK-46" style="rounded=0;orthogonalLoop=1;jettySize=auto;endArrow=none;startFill=0;" parent="1" source="cVDitgE7gGw9NUzEYhYK-42" target="cVDitgE7gGw9NUzEYhYK-1" edge="1">
          <mxGeometry relative="1" as="geometry">
            <mxPoint x="238" y="734" as="sourcePoint" />
            <mxPoint x="340" y="741" as="targetPoint" />
          </mxGeometry>
        </mxCell>
        <mxCell id="cVDitgE7gGw9NUzEYhYK-47" value="(0,*)" style="edgeLabel;align=center;verticalAlign=middle;resizable=0;points=[];" parent="cVDitgE7gGw9NUzEYhYK-46" vertex="1" connectable="0">
          <mxGeometry x="0.2038" relative="1" as="geometry">
            <mxPoint x="20" y="-6" as="offset" />
          </mxGeometry>
        </mxCell>
        <mxCell id="cVDitgE7gGw9NUzEYhYK-48" style="rounded=0;orthogonalLoop=1;jettySize=auto;endArrow=none;startFill=0;" parent="1" source="cVDitgE7gGw9NUzEYhYK-3" target="cVDitgE7gGw9NUzEYhYK-42" edge="1">
          <mxGeometry relative="1" as="geometry">
            <mxPoint x="314" y="920" as="sourcePoint" />
            <mxPoint x="340" y="865" as="targetPoint" />
          </mxGeometry>
        </mxCell>
        <mxCell id="cVDitgE7gGw9NUzEYhYK-49" value="(1,*)" style="edgeLabel;align=center;verticalAlign=middle;resizable=0;points=[];" parent="cVDitgE7gGw9NUzEYhYK-48" vertex="1" connectable="0">
          <mxGeometry x="-0.2706" relative="1" as="geometry">
            <mxPoint x="35" y="9" as="offset" />
          </mxGeometry>
        </mxCell>
        <mxCell id="cVDitgE7gGw9NUzEYhYK-57" style="rounded=0;orthogonalLoop=1;jettySize=auto;endArrow=none;startFill=1;startArrow=classic;" parent="1" source="cVDitgE7gGw9NUzEYhYK-54" target="cVDitgE7gGw9NUzEYhYK-3" edge="1">
          <mxGeometry relative="1" as="geometry" />
        </mxCell>
        <mxCell id="cVDitgE7gGw9NUzEYhYK-54" value="is-a" style="shape=hexagon;perimeter=hexagonPerimeter2;fixedSize=1;fontStyle=1;fillColor=#76608a;fontColor=#ffffff;strokeColor=#432D57;" parent="1" vertex="1">
          <mxGeometry x="363" y="1000" width="62.5" height="30" as="geometry" />
        </mxCell>
        <mxCell id="cVDitgE7gGw9NUzEYhYK-55" value="LinkedObject" style="rounded=0;fillColor=#d5e8d4;strokeColor=#82b366;" parent="1" vertex="1">
          <mxGeometry x="333.25" y="1050" width="120" height="30" as="geometry" />
        </mxCell>
        <mxCell id="cVDitgE7gGw9NUzEYhYK-56" style="rounded=0;orthogonalLoop=1;jettySize=auto;endArrow=none;startFill=0;exitX=0.5;exitY=1;exitDx=0;exitDy=0;" parent="1" source="cVDitgE7gGw9NUzEYhYK-54" target="cVDitgE7gGw9NUzEYhYK-55" edge="1">
          <mxGeometry relative="1" as="geometry">
            <mxPoint x="238" y="734" as="sourcePoint" />
            <mxPoint x="380" y="1090" as="targetPoint" />
          </mxGeometry>
        </mxCell>
        <mxCell id="cVDitgE7gGw9NUzEYhYK-58" style="rounded=0;orthogonalLoop=1;jettySize=auto;endArrow=none;startFill=1;endFill=1;startArrow=classic;" parent="1" source="cVDitgE7gGw9NUzEYhYK-54" target="cVDitgE7gGw9NUzEYhYK-2" edge="1">
          <mxGeometry relative="1" as="geometry">
            <mxPoint x="412" y="1049" as="sourcePoint" />
            <mxPoint x="459" y="975" as="targetPoint" />
          </mxGeometry>
        </mxCell>
        <mxCell id="cVDitgE7gGw9NUzEYhYK-69" style="rounded=0;orthogonalLoop=1;jettySize=auto;endArrow=none;startFill=0;" parent="1" source="cVDitgE7gGw9NUzEYhYK-2" edge="1">
          <mxGeometry relative="1" as="geometry">
            <mxPoint x="167" y="936" as="sourcePoint" />
            <mxPoint x="230" y="950" as="targetPoint" />
          </mxGeometry>
        </mxCell>
        <mxCell id="cVDitgE7gGw9NUzEYhYK-74" value="timestamp" style="ellipse;fillColor=#dae8fc;strokeColor=#6c8ebf;" parent="1" vertex="1">
          <mxGeometry x="92.5" y="750" width="120" height="30" as="geometry" />
        </mxCell>
        <mxCell id="cVDitgE7gGw9NUzEYhYK-75" style="rounded=0;orthogonalLoop=1;jettySize=auto;endArrow=none;startFill=0;" parent="1" source="cVDitgE7gGw9NUzEYhYK-74" target="cVDitgE7gGw9NUzEYhYK-1" edge="1">
          <mxGeometry relative="1" as="geometry">
            <mxPoint x="238" y="734" as="sourcePoint" />
            <mxPoint x="340" y="741" as="targetPoint" />
          </mxGeometry>
        </mxCell>
        <mxCell id="cVDitgE7gGw9NUzEYhYK-80" value="sourceFile" style="ellipse;fillColor=#dae8fc;strokeColor=#6c8ebf;" parent="1" vertex="1">
          <mxGeometry x="130" y="690" width="80" height="30" as="geometry" />
        </mxCell>
        <mxCell id="cVDitgE7gGw9NUzEYhYK-81" style="rounded=0;orthogonalLoop=1;jettySize=auto;endArrow=none;startFill=0;" parent="1" source="cVDitgE7gGw9NUzEYhYK-80" target="cVDitgE7gGw9NUzEYhYK-1" edge="1">
          <mxGeometry relative="1" as="geometry">
            <mxPoint x="223" y="652" as="sourcePoint" />
            <mxPoint x="371" y="730" as="targetPoint" />
          </mxGeometry>
        </mxCell>
        <mxCell id="cVDitgE7gGw9NUzEYhYK-2" value="Executable" style="rounded=0;fillColor=#d5e8d4;strokeColor=#82b366;" parent="1" vertex="1">
          <mxGeometry x="180" y="925" width="120" height="60" as="geometry" />
        </mxCell>
        <mxCell id="cVDitgE7gGw9NUzEYhYK-83" value="usesSharedObject" style="rhombus;fillColor=#fff2cc;strokeColor=#d6b656;" parent="1" vertex="1">
          <mxGeometry x="325" y="900" width="130" height="70" as="geometry" />
        </mxCell>
        <mxCell id="cVDitgE7gGw9NUzEYhYK-84" style="rounded=0;orthogonalLoop=1;jettySize=auto;endArrow=none;startFill=0;" parent="1" source="cVDitgE7gGw9NUzEYhYK-83" target="cVDitgE7gGw9NUzEYhYK-3" edge="1">
          <mxGeometry relative="1" as="geometry">
            <mxPoint x="212" y="692" as="sourcePoint" />
            <mxPoint x="347" y="730" as="targetPoint" />
          </mxGeometry>
        </mxCell>
        <mxCell id="cVDitgE7gGw9NUzEYhYK-87" value="(1,1)" style="edgeLabel;align=center;verticalAlign=middle;resizable=0;points=[];" parent="cVDitgE7gGw9NUzEYhYK-84" vertex="1" connectable="0">
          <mxGeometry x="0.312" relative="1" as="geometry">
            <mxPoint x="-4" y="-7" as="offset" />
          </mxGeometry>
        </mxCell>
        <mxCell id="cVDitgE7gGw9NUzEYhYK-85" style="rounded=0;orthogonalLoop=1;jettySize=auto;endArrow=none;startFill=0;" parent="1" source="cVDitgE7gGw9NUzEYhYK-83" target="Sw6q3a58rGhY5c9iJoHR-21" edge="1">
          <mxGeometry relative="1" as="geometry">
            <mxPoint x="486" y="958" as="sourcePoint" />
            <mxPoint x="520" y="957" as="targetPoint" />
            <Array as="points">
              <mxPoint x="200" y="1060" />
            </Array>
          </mxGeometry>
        </mxCell>
        <mxCell id="cVDitgE7gGw9NUzEYhYK-86" value="(0,*)" style="edgeLabel;align=center;verticalAlign=middle;resizable=0;points=[];" parent="cVDitgE7gGw9NUzEYhYK-85" vertex="1" connectable="0">
          <mxGeometry x="0.3058" relative="1" as="geometry">
            <mxPoint x="-124" y="66" as="offset" />
          </mxGeometry>
        </mxCell>
        <mxCell id="cVDitgE7gGw9NUzEYhYK-88" value="name" style="ellipse;fillColor=#dae8fc;strokeColor=#6c8ebf;" parent="1" vertex="1">
          <mxGeometry x="520" y="1040" width="80" height="30" as="geometry" />
        </mxCell>
        <mxCell id="cVDitgE7gGw9NUzEYhYK-89" value="binaryHash" style="ellipse;fontStyle=4" parent="1" vertex="1">
          <mxGeometry x="541.75" y="870" width="95" height="30" as="geometry" />
        </mxCell>
        <mxCell id="cVDitgE7gGw9NUzEYhYK-90" value="timestamp" style="ellipse;fillColor=#dae8fc;strokeColor=#6c8ebf;" parent="1" vertex="1">
          <mxGeometry x="475" y="1070" width="115" height="30" as="geometry" />
        </mxCell>
        <mxCell id="cVDitgE7gGw9NUzEYhYK-91" style="rounded=0;orthogonalLoop=1;jettySize=auto;endArrow=none;startFill=0;" parent="1" source="cVDitgE7gGw9NUzEYhYK-88" target="cVDitgE7gGw9NUzEYhYK-55" edge="1">
          <mxGeometry relative="1" as="geometry">
            <mxPoint x="518.7835931288073" y="1030.0033982822017" as="sourcePoint" />
            <mxPoint x="456.21000000000004" y="1014.61" as="targetPoint" />
          </mxGeometry>
        </mxCell>
        <mxCell id="cVDitgE7gGw9NUzEYhYK-92" style="rounded=0;orthogonalLoop=1;jettySize=auto;endArrow=none;startFill=0;" parent="1" source="cVDitgE7gGw9NUzEYhYK-89" target="cVDitgE7gGw9NUzEYhYK-3" edge="1">
          <mxGeometry relative="1" as="geometry">
            <mxPoint x="649.3235931288073" y="844.3933982822018" as="sourcePoint" />
            <mxPoint x="410" y="914.4156560088202" as="targetPoint" />
          </mxGeometry>
        </mxCell>
        <mxCell id="cVDitgE7gGw9NUzEYhYK-93" style="rounded=0;orthogonalLoop=1;jettySize=auto;endArrow=none;startFill=0;" parent="1" source="cVDitgE7gGw9NUzEYhYK-90" target="cVDitgE7gGw9NUzEYhYK-55" edge="1">
          <mxGeometry relative="1" as="geometry">
            <mxPoint x="702.5735931288073" y="994.3933982822018" as="sourcePoint" />
            <mxPoint x="640" y="979" as="targetPoint" />
          </mxGeometry>
        </mxCell>
        <mxCell id="cVDitgE7gGw9NUzEYhYK-96" value="ExperimentRun" style="rounded=0;fillColor=#d5e8d4;strokeColor=#82b366;" parent="1" vertex="1">
          <mxGeometry x="150" y="1210" width="120" height="60" as="geometry" />
        </mxCell>
        <mxCell id="cVDitgE7gGw9NUzEYhYK-97" value="usesExecutable" style="rhombus;fillColor=#fff2cc;strokeColor=#d6b656;" parent="1" vertex="1">
          <mxGeometry x="7.5" y="930" width="122.5" height="60" as="geometry" />
        </mxCell>
        <mxCell id="cVDitgE7gGw9NUzEYhYK-98" style="rounded=0;orthogonalLoop=1;jettySize=auto;endArrow=none;startFill=0;" parent="1" source="Sw6q3a58rGhY5c9iJoHR-21" target="cVDitgE7gGw9NUzEYhYK-97" edge="1">
          <mxGeometry relative="1" as="geometry">
            <mxPoint x="-47" y="1100" as="sourcePoint" />
            <mxPoint x="90" y="1067" as="targetPoint" />
          </mxGeometry>
        </mxCell>
        <mxCell id="cVDitgE7gGw9NUzEYhYK-100" value="(1,1)" style="edgeLabel;align=center;verticalAlign=middle;resizable=0;points=[];" parent="cVDitgE7gGw9NUzEYhYK-98" vertex="1" connectable="0">
          <mxGeometry x="-0.1624" y="1" relative="1" as="geometry">
            <mxPoint x="-18" y="21" as="offset" />
          </mxGeometry>
        </mxCell>
        <mxCell id="cVDitgE7gGw9NUzEYhYK-99" style="rounded=0;orthogonalLoop=1;jettySize=auto;endArrow=none;startFill=0;" parent="1" source="cVDitgE7gGw9NUzEYhYK-97" target="cVDitgE7gGw9NUzEYhYK-2" edge="1">
          <mxGeometry relative="1" as="geometry">
            <mxPoint x="202" y="1230" as="sourcePoint" />
            <mxPoint x="207" y="1159" as="targetPoint" />
          </mxGeometry>
        </mxCell>
        <mxCell id="cVDitgE7gGw9NUzEYhYK-101" value="(1,*)" style="edgeLabel;align=center;verticalAlign=middle;resizable=0;points=[];" parent="cVDitgE7gGw9NUzEYhYK-99" vertex="1" connectable="0">
          <mxGeometry x="0.8041" y="-1" relative="1" as="geometry">
            <mxPoint x="-9" y="-14" as="offset" />
          </mxGeometry>
        </mxCell>
        <mxCell id="cVDitgE7gGw9NUzEYhYK-102" value="timestamp" style="ellipse;fillColor=#dae8fc;strokeColor=#6c8ebf;" parent="1" vertex="1">
          <mxGeometry x="-40" y="1275" width="120" height="30" as="geometry" />
        </mxCell>
        <mxCell id="cVDitgE7gGw9NUzEYhYK-103" style="rounded=0;orthogonalLoop=1;jettySize=auto;endArrow=none;startFill=0;" parent="1" source="cVDitgE7gGw9NUzEYhYK-102" target="cVDitgE7gGw9NUzEYhYK-96" edge="1">
          <mxGeometry relative="1" as="geometry">
            <mxPoint x="-110" y="1193" as="sourcePoint" />
            <mxPoint x="27" y="1160" as="targetPoint" />
          </mxGeometry>
        </mxCell>
        <mxCell id="cVDitgE7gGw9NUzEYhYK-104" value="id" style="ellipse;fontStyle=4" parent="1" vertex="1">
          <mxGeometry x="-40" y="1230" width="120" height="30" as="geometry" />
        </mxCell>
        <mxCell id="cVDitgE7gGw9NUzEYhYK-105" style="rounded=0;orthogonalLoop=1;jettySize=auto;endArrow=none;startFill=0;" parent="1" source="cVDitgE7gGw9NUzEYhYK-104" target="cVDitgE7gGw9NUzEYhYK-96" edge="1">
          <mxGeometry relative="1" as="geometry">
            <mxPoint x="60" y="1256" as="sourcePoint" />
            <mxPoint x="140" y="1259" as="targetPoint" />
          </mxGeometry>
        </mxCell>
        <mxCell id="cVDitgE7gGw9NUzEYhYK-106" value="Subsystem" style="rounded=0;fillColor=#d5e8d4;strokeColor=#82b366;" parent="1" vertex="1">
          <mxGeometry x="512.5" y="1225" width="120" height="60" as="geometry" />
        </mxCell>
        <mxCell id="cVDitgE7gGw9NUzEYhYK-107" value="usesSubsystems" style="rhombus;fillColor=#fff2cc;strokeColor=#d6b656;" parent="1" vertex="1">
          <mxGeometry x="340" y="1220" width="121.75" height="60" as="geometry" />
        </mxCell>
        <mxCell id="cVDitgE7gGw9NUzEYhYK-109" style="rounded=0;orthogonalLoop=1;jettySize=auto;endArrow=none;startFill=0;" parent="1" source="cVDitgE7gGw9NUzEYhYK-106" target="cVDitgE7gGw9NUzEYhYK-107" edge="1">
          <mxGeometry relative="1" as="geometry">
            <mxPoint x="480" y="1193" as="sourcePoint" />
            <mxPoint x="388" y="1160" as="targetPoint" />
          </mxGeometry>
        </mxCell>
        <mxCell id="cVDitgE7gGw9NUzEYhYK-110" style="rounded=0;orthogonalLoop=1;jettySize=auto;endArrow=none;startFill=0;" parent="1" source="cVDitgE7gGw9NUzEYhYK-107" target="cVDitgE7gGw9NUzEYhYK-96" edge="1">
          <mxGeometry relative="1" as="geometry">
            <mxPoint x="515" y="1250" as="sourcePoint" />
            <mxPoint x="448" y="1250" as="targetPoint" />
          </mxGeometry>
        </mxCell>
        <mxCell id="cVDitgE7gGw9NUzEYhYK-124" value="(0,*)" style="edgeLabel;align=center;verticalAlign=middle;resizable=0;points=[];" parent="cVDitgE7gGw9NUzEYhYK-110" vertex="1" connectable="0">
          <mxGeometry x="-0.1097" relative="1" as="geometry">
            <mxPoint x="-12" y="-11" as="offset" />
          </mxGeometry>
        </mxCell>
        <mxCell id="cVDitgE7gGw9NUzEYhYK-111" style="rounded=0;orthogonalLoop=1;jettySize=auto;endArrow=none;startFill=0;" parent="1" source="cVDitgE7gGw9NUzEYhYK-96" target="cVDitgE7gGw9NUzEYhYK-168" edge="1">
          <mxGeometry relative="1" as="geometry">
            <mxPoint x="572" y="930" as="sourcePoint" />
            <mxPoint x="827.9623287671238" y="954.5205479452056" as="targetPoint" />
            <Array as="points">
              <mxPoint x="770" y="1140" />
            </Array>
          </mxGeometry>
        </mxCell>
        <mxCell id="cVDitgE7gGw9NUzEYhYK-112" value="(0,1)" style="edgeLabel;align=center;verticalAlign=middle;resizable=0;points=[];" parent="cVDitgE7gGw9NUzEYhYK-111" vertex="1" connectable="0">
          <mxGeometry x="-0.5159" y="-1" relative="1" as="geometry">
            <mxPoint x="-153" y="9" as="offset" />
          </mxGeometry>
        </mxCell>
        <mxCell id="cVDitgE7gGw9NUzEYhYK-113" value="name" style="ellipse;fontStyle=4" parent="1" vertex="1">
          <mxGeometry x="665" y="1190" width="100" height="35" as="geometry" />
        </mxCell>
        <mxCell id="cVDitgE7gGw9NUzEYhYK-114" value="name" style="ellipse;fontStyle=0;fillColor=#dae8fc;strokeColor=#6c8ebf;" parent="1" vertex="1">
          <mxGeometry x="1000" y="1240" width="100" height="35" as="geometry" />
        </mxCell>
        <mxCell id="cVDitgE7gGw9NUzEYhYK-115" value="value" style="ellipse;fontStyle=0;fillColor=#dae8fc;strokeColor=#6c8ebf;" parent="1" vertex="1">
          <mxGeometry x="1000" y="1275" width="100" height="35" as="geometry" />
        </mxCell>
        <mxCell id="cVDitgE7gGw9NUzEYhYK-116" style="rounded=0;orthogonalLoop=1;jettySize=auto;endArrow=none;startFill=0;" parent="1" source="cVDitgE7gGw9NUzEYhYK-113" target="cVDitgE7gGw9NUzEYhYK-106" edge="1">
          <mxGeometry relative="1" as="geometry">
            <mxPoint x="523" y="1268" as="sourcePoint" />
            <mxPoint x="438" y="1273" as="targetPoint" />
          </mxGeometry>
        </mxCell>
        <mxCell id="cVDitgE7gGw9NUzEYhYK-117" value="hasConfiguration" style="rhombus;fillColor=#fff2cc;strokeColor=#d6b656;" parent="1" vertex="1">
          <mxGeometry x="690" y="1250" width="105" height="50" as="geometry" />
        </mxCell>
        <mxCell id="cVDitgE7gGw9NUzEYhYK-118" value="ConfigEntry" style="rounded=0;fillColor=#d5e8d4;strokeColor=#82b366;" parent="1" vertex="1">
          <mxGeometry x="831.25" y="1252.5" width="120" height="45" as="geometry" />
        </mxCell>
        <mxCell id="cVDitgE7gGw9NUzEYhYK-120" style="rounded=0;orthogonalLoop=1;jettySize=auto;endArrow=none;startFill=0;" parent="1" source="cVDitgE7gGw9NUzEYhYK-117" target="cVDitgE7gGw9NUzEYhYK-106" edge="1">
          <mxGeometry relative="1" as="geometry">
            <mxPoint x="689" y="1230" as="sourcePoint" />
            <mxPoint x="643" y="1245" as="targetPoint" />
          </mxGeometry>
        </mxCell>
        <mxCell id="cVDitgE7gGw9NUzEYhYK-122" value="(0,*)" style="edgeLabel;align=center;verticalAlign=middle;resizable=0;points=[];" parent="cVDitgE7gGw9NUzEYhYK-120" vertex="1" connectable="0">
          <mxGeometry x="0.6532" y="-1" relative="1" as="geometry">
            <mxPoint x="6" y="-12" as="offset" />
          </mxGeometry>
        </mxCell>
        <mxCell id="cVDitgE7gGw9NUzEYhYK-121" style="rounded=0;orthogonalLoop=1;jettySize=auto;endArrow=none;startFill=0;" parent="1" source="cVDitgE7gGw9NUzEYhYK-118" target="cVDitgE7gGw9NUzEYhYK-117" edge="1">
          <mxGeometry relative="1" as="geometry">
            <mxPoint x="710" y="1280" as="sourcePoint" />
            <mxPoint x="643" y="1272" as="targetPoint" />
          </mxGeometry>
        </mxCell>
        <mxCell id="cVDitgE7gGw9NUzEYhYK-123" value="(1,1)" style="edgeLabel;align=center;verticalAlign=middle;resizable=0;points=[];" parent="cVDitgE7gGw9NUzEYhYK-121" vertex="1" connectable="0">
          <mxGeometry x="0.0721" y="-1" relative="1" as="geometry">
            <mxPoint y="-14" as="offset" />
          </mxGeometry>
        </mxCell>
        <mxCell id="cVDitgE7gGw9NUzEYhYK-125" value="(1,1)" style="edgeLabel;align=center;verticalAlign=middle;resizable=0;points=[];" parent="1" vertex="1" connectable="0">
          <mxGeometry x="490.0004186486743" y="1244.9994211965577" as="geometry" />
        </mxCell>
        <mxCell id="cVDitgE7gGw9NUzEYhYK-127" style="rounded=0;orthogonalLoop=1;jettySize=auto;endArrow=none;startFill=0;" parent="1" source="cVDitgE7gGw9NUzEYhYK-114" target="cVDitgE7gGw9NUzEYhYK-118" edge="1">
          <mxGeometry relative="1" as="geometry">
            <mxPoint x="689" y="1229" as="sourcePoint" />
            <mxPoint x="643" y="1245" as="targetPoint" />
          </mxGeometry>
        </mxCell>
        <mxCell id="cVDitgE7gGw9NUzEYhYK-128" style="rounded=0;orthogonalLoop=1;jettySize=auto;endArrow=none;startFill=0;" parent="1" source="cVDitgE7gGw9NUzEYhYK-115" target="cVDitgE7gGw9NUzEYhYK-118" edge="1">
          <mxGeometry relative="1" as="geometry">
            <mxPoint x="1012" y="1273" as="sourcePoint" />
            <mxPoint x="960" y="1278" as="targetPoint" />
          </mxGeometry>
        </mxCell>
        <mxCell id="cVDitgE7gGw9NUzEYhYK-129" value="hash" style="ellipse;fontStyle=4" parent="1" vertex="1">
          <mxGeometry x="1000" y="1205" width="100" height="35" as="geometry" />
        </mxCell>
        <mxCell id="cVDitgE7gGw9NUzEYhYK-130" style="rounded=0;orthogonalLoop=1;jettySize=auto;endArrow=none;startFill=0;" parent="1" source="cVDitgE7gGw9NUzEYhYK-129" target="cVDitgE7gGw9NUzEYhYK-118" edge="1">
          <mxGeometry relative="1" as="geometry">
            <mxPoint x="1012" y="1273" as="sourcePoint" />
            <mxPoint x="960" y="1278" as="targetPoint" />
          </mxGeometry>
        </mxCell>
        <mxCell id="cVDitgE7gGw9NUzEYhYK-132" value="usesFlags" style="rhombus;fillColor=#fff2cc;strokeColor=#d6b656;" parent="1" vertex="1">
          <mxGeometry x="100" y="790" width="105" height="50" as="geometry" />
        </mxCell>
        <mxCell id="cVDitgE7gGw9NUzEYhYK-133" value="Flags" style="rounded=0;fillColor=#d5e8d4;strokeColor=#82b366;" parent="1" vertex="1">
          <mxGeometry x="20" y="850" width="90" height="20" as="geometry" />
        </mxCell>
        <mxCell id="cVDitgE7gGw9NUzEYhYK-134" style="rounded=0;orthogonalLoop=1;jettySize=auto;endArrow=none;startFill=0;" parent="1" source="cVDitgE7gGw9NUzEYhYK-132" target="cVDitgE7gGw9NUzEYhYK-1" edge="1">
          <mxGeometry relative="1" as="geometry">
            <mxPoint x="293.6482870178538" y="569.8134025157301" as="sourcePoint" />
            <mxPoint x="381" y="720" as="targetPoint" />
          </mxGeometry>
        </mxCell>
        <mxCell id="cVDitgE7gGw9NUzEYhYK-135" style="rounded=0;orthogonalLoop=1;jettySize=auto;endArrow=none;startFill=0;" parent="1" source="cVDitgE7gGw9NUzEYhYK-133" target="cVDitgE7gGw9NUzEYhYK-132" edge="1">
          <mxGeometry relative="1" as="geometry">
            <mxPoint x="246" y="822" as="sourcePoint" />
            <mxPoint x="370" y="760" as="targetPoint" />
          </mxGeometry>
        </mxCell>
        <mxCell id="cVDitgE7gGw9NUzEYhYK-143" value="(1,*)" style="edgeLabel;align=center;verticalAlign=middle;resizable=0;points=[];" parent="cVDitgE7gGw9NUzEYhYK-135" vertex="1" connectable="0">
          <mxGeometry x="-0.0751" relative="1" as="geometry">
            <mxPoint x="-20" y="-9" as="offset" />
          </mxGeometry>
        </mxCell>
        <mxCell id="cVDitgE7gGw9NUzEYhYK-137" value="hash" style="ellipse;fontStyle=4" parent="1" vertex="1">
          <mxGeometry x="-100" y="820" width="80" height="30" as="geometry" />
        </mxCell>
        <mxCell id="cVDitgE7gGw9NUzEYhYK-138" value="flagString" style="ellipse;fillColor=#dae8fc;strokeColor=#6c8ebf;" parent="1" vertex="1">
          <mxGeometry x="-120" y="860" width="120" height="30" as="geometry" />
        </mxCell>
        <mxCell id="cVDitgE7gGw9NUzEYhYK-139" style="rounded=0;orthogonalLoop=1;jettySize=auto;endArrow=none;startFill=0;" parent="1" source="cVDitgE7gGw9NUzEYhYK-137" target="cVDitgE7gGw9NUzEYhYK-133" edge="1">
          <mxGeometry relative="1" as="geometry">
            <mxPoint x="150" y="851" as="sourcePoint" />
            <mxPoint x="185" y="843" as="targetPoint" />
          </mxGeometry>
        </mxCell>
        <mxCell id="cVDitgE7gGw9NUzEYhYK-140" style="rounded=0;orthogonalLoop=1;jettySize=auto;endArrow=none;startFill=0;" parent="1" source="cVDitgE7gGw9NUzEYhYK-138" target="cVDitgE7gGw9NUzEYhYK-133" edge="1">
          <mxGeometry relative="1" as="geometry">
            <mxPoint x="-15" y="842" as="sourcePoint" />
            <mxPoint x="30" y="852" as="targetPoint" />
          </mxGeometry>
        </mxCell>
        <mxCell id="cVDitgE7gGw9NUzEYhYK-141" style="rounded=0;orthogonalLoop=1;jettySize=auto;endArrow=none;startFill=0;flowAnimation=0;elbow=vertical;" parent="1" source="cVDitgE7gGw9NUzEYhYK-132" target="cVDitgE7gGw9NUzEYhYK-55" edge="1">
          <mxGeometry relative="1" as="geometry">
            <mxPoint x="70" y="972" as="sourcePoint" />
            <mxPoint x="-13" y="990" as="targetPoint" />
            <Array as="points">
              <mxPoint x="140" y="1010" />
            </Array>
          </mxGeometry>
        </mxCell>
        <mxCell id="cVDitgE7gGw9NUzEYhYK-142" value="(1,1)" style="edgeLabel;align=center;verticalAlign=middle;resizable=0;points=[];" parent="cVDitgE7gGw9NUzEYhYK-141" vertex="1" connectable="0">
          <mxGeometry x="0.8593" y="1" relative="1" as="geometry">
            <mxPoint x="8" y="-9" as="offset" />
          </mxGeometry>
        </mxCell>
        <mxCell id="cVDitgE7gGw9NUzEYhYK-144" value="(1,1)" style="edgeLabel;align=center;verticalAlign=middle;resizable=0;points=[];" parent="1" vertex="1" connectable="0">
          <mxGeometry x="322.5008836266128" y="749.9976677942975" as="geometry">
            <mxPoint x="-6" y="11" as="offset" />
          </mxGeometry>
        </mxCell>
        <mxCell id="cVDitgE7gGw9NUzEYhYK-145" value="isLinkedBy" style="rhombus;fillColor=#fff2cc;strokeColor=#d6b656;" parent="1" vertex="1">
          <mxGeometry x="600" y="960" width="105" height="50" as="geometry" />
        </mxCell>
        <mxCell id="cVDitgE7gGw9NUzEYhYK-146" style="rounded=0;orthogonalLoop=1;jettySize=auto;endArrow=none;startFill=0;" parent="1" source="cVDitgE7gGw9NUzEYhYK-145" target="cVDitgE7gGw9NUzEYhYK-55" edge="1">
          <mxGeometry relative="1" as="geometry">
            <mxPoint x="532" y="1091" as="sourcePoint" />
            <mxPoint x="453" y="1082" as="targetPoint" />
          </mxGeometry>
        </mxCell>
        <mxCell id="cVDitgE7gGw9NUzEYhYK-148" value="(1,1)" style="edgeLabel;align=center;verticalAlign=middle;resizable=0;points=[];" parent="cVDitgE7gGw9NUzEYhYK-146" vertex="1" connectable="0">
          <mxGeometry x="0.7357" y="-1" relative="1" as="geometry">
            <mxPoint x="-10" y="-12" as="offset" />
          </mxGeometry>
        </mxCell>
        <mxCell id="cVDitgE7gGw9NUzEYhYK-147" style="rounded=0;orthogonalLoop=1;jettySize=auto;endArrow=none;startFill=0;" parent="1" source="cVDitgE7gGw9NUzEYhYK-145" target="cVDitgE7gGw9NUzEYhYK-5" edge="1">
          <mxGeometry relative="1" as="geometry">
            <mxPoint x="598" y="1126" as="sourcePoint" />
            <mxPoint x="453" y="1090" as="targetPoint" />
          </mxGeometry>
        </mxCell>
        <mxCell id="cVDitgE7gGw9NUzEYhYK-149" value="(1,*)" style="edgeLabel;align=center;verticalAlign=middle;resizable=0;points=[];" parent="cVDitgE7gGw9NUzEYhYK-147" vertex="1" connectable="0">
          <mxGeometry x="0.9288" y="-1" relative="1" as="geometry">
            <mxPoint x="17" y="7" as="offset" />
          </mxGeometry>
        </mxCell>
        <mxCell id="cVDitgE7gGw9NUzEYhYK-151" style="rounded=0;orthogonalLoop=1;jettySize=auto;endArrow=none;startFill=0;" parent="1" source="cVDitgE7gGw9NUzEYhYK-55" target="cVDitgE7gGw9NUzEYhYK-168" edge="1">
          <mxGeometry relative="1" as="geometry">
            <mxPoint x="439" y="760" as="sourcePoint" />
            <mxPoint x="734" y="874" as="targetPoint" />
            <Array as="points">
              <mxPoint x="530" y="1130" />
              <mxPoint x="740" y="1120" />
            </Array>
          </mxGeometry>
        </mxCell>
        <mxCell id="cVDitgE7gGw9NUzEYhYK-152" value="(0,1)" style="edgeLabel;align=center;verticalAlign=middle;resizable=0;points=[];" parent="cVDitgE7gGw9NUzEYhYK-151" vertex="1" connectable="0">
          <mxGeometry x="-0.2706" relative="1" as="geometry">
            <mxPoint x="-182" y="-26" as="offset" />
          </mxGeometry>
        </mxCell>
        <mxCell id="cVDitgE7gGw9NUzEYhYK-156" style="rounded=0;orthogonalLoop=1;jettySize=auto;exitX=0.5;exitY=1;exitDx=0;exitDy=0;endArrow=none;startFill=0;" parent="1" source="cVDitgE7gGw9NUzEYhYK-155" target="cVDitgE7gGw9NUzEYhYK-2" edge="1">
          <mxGeometry relative="1" as="geometry" />
        </mxCell>
        <mxCell id="cVDitgE7gGw9NUzEYhYK-155" value="binaryHash" style="ellipse;fontStyle=4" parent="1" vertex="1">
          <mxGeometry x="212.5" y="860" width="95" height="30" as="geometry" />
        </mxCell>
        <mxCell id="cVDitgE7gGw9NUzEYhYK-157" value="EnvironmentContext" style="rounded=0;fillColor=#d5e8d4;strokeColor=#82b366;" parent="1" vertex="1">
          <mxGeometry x="795" y="725" width="145" height="50" as="geometry" />
        </mxCell>
        <mxCell id="cVDitgE7gGw9NUzEYhYK-158" value="hasEnvironmentVariable" style="rhombus;fillColor=#fff2cc;strokeColor=#d6b656;" parent="1" vertex="1">
          <mxGeometry x="951.25" y="682.5" width="142.5" height="65" as="geometry" />
        </mxCell>
        <mxCell id="cVDitgE7gGw9NUzEYhYK-159" style="rounded=0;orthogonalLoop=1;jettySize=auto;endArrow=none;startFill=0;" parent="1" source="cVDitgE7gGw9NUzEYhYK-21" target="cVDitgE7gGw9NUzEYhYK-158" edge="1">
          <mxGeometry relative="1" as="geometry">
            <mxPoint x="999" y="835" as="sourcePoint" />
            <mxPoint x="1078" y="813" as="targetPoint" />
          </mxGeometry>
        </mxCell>
        <mxCell id="cVDitgE7gGw9NUzEYhYK-160" style="rounded=0;orthogonalLoop=1;jettySize=auto;endArrow=none;startFill=0;" parent="1" source="cVDitgE7gGw9NUzEYhYK-158" target="cVDitgE7gGw9NUzEYhYK-157" edge="1">
          <mxGeometry relative="1" as="geometry">
            <mxPoint x="962" y="835" as="sourcePoint" />
            <mxPoint x="962" y="810" as="targetPoint" />
          </mxGeometry>
        </mxCell>
        <mxCell id="cVDitgE7gGw9NUzEYhYK-163" value="(1,1)" style="edgeLabel;align=center;verticalAlign=middle;resizable=0;points=[];" parent="1" vertex="1" connectable="0">
          <mxGeometry x="859.9970834127314" y="790.0008710867788" as="geometry" />
        </mxCell>
        <mxCell id="cVDitgE7gGw9NUzEYhYK-164" value="(0,*)" style="edgeLabel;align=center;verticalAlign=middle;resizable=0;points=[];" parent="1" vertex="1" connectable="0">
          <mxGeometry x="969.9970834127314" y="747.5008710867788" as="geometry">
            <mxPoint x="-6" as="offset" />
          </mxGeometry>
        </mxCell>
        <mxCell id="cVDitgE7gGw9NUzEYhYK-166" value="(1,*)" style="edgeLabel;align=center;verticalAlign=middle;resizable=0;points=[];" parent="1" vertex="1" connectable="0">
          <mxGeometry x="1079.9970834127314" y="772.5008710867788" as="geometry">
            <mxPoint x="-6" as="offset" />
          </mxGeometry>
        </mxCell>
        <mxCell id="cVDitgE7gGw9NUzEYhYK-168" value="hasEnvironmentContext" style="rhombus;fillColor=#fff2cc;strokeColor=#d6b656;" parent="1" vertex="1">
          <mxGeometry x="705" y="830" width="157.5" height="80" as="geometry" />
        </mxCell>
        <mxCell id="cVDitgE7gGw9NUzEYhYK-169" style="rounded=0;orthogonalLoop=1;jettySize=auto;endArrow=none;startFill=0;" parent="1" source="cVDitgE7gGw9NUzEYhYK-157" target="cVDitgE7gGw9NUzEYhYK-168" edge="1">
          <mxGeometry relative="1" as="geometry">
            <mxPoint x="848" y="704" as="sourcePoint" />
            <mxPoint x="800" y="706" as="targetPoint" />
          </mxGeometry>
        </mxCell>
        <mxCell id="cVDitgE7gGw9NUzEYhYK-174" style="rounded=0;orthogonalLoop=1;jettySize=auto;exitX=1;exitY=0.5;exitDx=0;exitDy=0;dashed=1;" parent="1" source="cVDitgE7gGw9NUzEYhYK-173" target="cVDitgE7gGw9NUzEYhYK-96" edge="1">
          <mxGeometry relative="1" as="geometry" />
        </mxCell>
        <mxCell id="cVDitgE7gGw9NUzEYhYK-173" value="storeLocation" style="ellipse;dashed=1;fillColor=#dae8fc;strokeColor=#6c8ebf;" parent="1" vertex="1">
          <mxGeometry x="-40" y="1320" width="120" height="30" as="geometry" />
        </mxCell>
        <mxCell id="Sw6q3a58rGhY5c9iJoHR-2" value="scorepVersion" style="ellipse;fillColor=#dae8fc;strokeColor=#6c8ebf;" parent="1" vertex="1">
          <mxGeometry x="165" y="560" width="90" height="30" as="geometry" />
        </mxCell>
        <mxCell id="Sw6q3a58rGhY5c9iJoHR-3" style="rounded=0;orthogonalLoop=1;jettySize=auto;endArrow=none;startFill=0;" parent="1" source="Sw6q3a58rGhY5c9iJoHR-2" target="cVDitgE7gGw9NUzEYhYK-1" edge="1">
          <mxGeometry relative="1" as="geometry">
            <mxPoint x="234" y="609" as="sourcePoint" />
            <mxPoint x="382" y="730" as="targetPoint" />
          </mxGeometry>
        </mxCell>
        <mxCell id="Sw6q3a58rGhY5c9iJoHR-4" value="scorepRevision" style="ellipse;fillColor=#dae8fc;strokeColor=#6c8ebf;" parent="1" vertex="1">
          <mxGeometry x="235" y="530" width="90" height="30" as="geometry" />
        </mxCell>
        <mxCell id="Sw6q3a58rGhY5c9iJoHR-5" style="rounded=0;orthogonalLoop=1;jettySize=auto;endArrow=none;startFill=0;" parent="1" source="Sw6q3a58rGhY5c9iJoHR-4" target="cVDitgE7gGw9NUzEYhYK-1" edge="1">
          <mxGeometry relative="1" as="geometry">
            <mxPoint x="277" y="574" as="sourcePoint" />
            <mxPoint x="400" y="730" as="targetPoint" />
          </mxGeometry>
        </mxCell>
        <mxCell id="Sw6q3a58rGhY5c9iJoHR-6" value="scorepVersion" style="ellipse;fillColor=#dae8fc;strokeColor=#6c8ebf;" parent="1" vertex="1">
          <mxGeometry x="300" y="1100" width="90" height="30" as="geometry" />
        </mxCell>
        <mxCell id="Sw6q3a58rGhY5c9iJoHR-7" value="scorepRevision" style="ellipse;fillColor=#dae8fc;strokeColor=#6c8ebf;" parent="1" vertex="1">
          <mxGeometry x="355.88" y="1140" width="90" height="30" as="geometry" />
        </mxCell>
        <mxCell id="Sw6q3a58rGhY5c9iJoHR-8" style="rounded=0;orthogonalLoop=1;jettySize=auto;endArrow=none;startFill=0;" parent="1" source="Sw6q3a58rGhY5c9iJoHR-6" target="cVDitgE7gGw9NUzEYhYK-55" edge="1">
          <mxGeometry relative="1" as="geometry">
            <mxPoint x="492" y="1088" as="sourcePoint" />
            <mxPoint x="463" y="1084" as="targetPoint" />
          </mxGeometry>
        </mxCell>
        <mxCell id="Sw6q3a58rGhY5c9iJoHR-9" style="rounded=0;orthogonalLoop=1;jettySize=auto;endArrow=none;startFill=0;" parent="1" source="Sw6q3a58rGhY5c9iJoHR-7" target="cVDitgE7gGw9NUzEYhYK-55" edge="1">
          <mxGeometry relative="1" as="geometry">
            <mxPoint x="359" y="1121" as="sourcePoint" />
            <mxPoint x="389" y="1090" as="targetPoint" />
          </mxGeometry>
        </mxCell>
        <mxCell id="Sw6q3a58rGhY5c9iJoHR-19" value="name" style="ellipse;fillColor=#dae8fc;strokeColor=#6c8ebf;" parent="1" vertex="1">
          <mxGeometry x="-131.42" y="1045" width="120" height="30" as="geometry" />
        </mxCell>
        <mxCell id="Sw6q3a58rGhY5c9iJoHR-20" style="rounded=0;orthogonalLoop=1;jettySize=auto;endArrow=none;startFill=0;" parent="1" source="Sw6q3a58rGhY5c9iJoHR-19" target="Sw6q3a58rGhY5c9iJoHR-21" edge="1">
          <mxGeometry relative="1" as="geometry">
            <mxPoint x="201.58" y="1116" as="sourcePoint" />
            <mxPoint x="298.58000000000004" y="1140" as="targetPoint" />
          </mxGeometry>
        </mxCell>
        <mxCell id="Sw6q3a58rGhY5c9iJoHR-21" value="Program" style="rounded=0;fillColor=#d5e8d4;strokeColor=#82b366;" parent="1" vertex="1">
          <mxGeometry x="8.580000000000013" y="1065" width="120" height="45" as="geometry" />
        </mxCell>
        <mxCell id="Sw6q3a58rGhY5c9iJoHR-22" value="arguments" style="ellipse;fillColor=#dae8fc;strokeColor=#6c8ebf;" parent="1" vertex="1">
          <mxGeometry x="-121.41999999999999" y="1095" width="120" height="30" as="geometry" />
        </mxCell>
        <mxCell id="Sw6q3a58rGhY5c9iJoHR-23" style="rounded=0;orthogonalLoop=1;jettySize=auto;endArrow=none;startFill=0;" parent="1" source="Sw6q3a58rGhY5c9iJoHR-22" target="Sw6q3a58rGhY5c9iJoHR-21" edge="1">
          <mxGeometry relative="1" as="geometry">
            <mxPoint x="-4.4199999999999875" y="1074" as="sourcePoint" />
            <mxPoint x="28.580000000000013" y="1078" as="targetPoint" />
          </mxGeometry>
        </mxCell>
        <mxCell id="Sw6q3a58rGhY5c9iJoHR-24" style="rounded=0;orthogonalLoop=1;jettySize=auto;endArrow=none;startFill=0;" parent="1" source="Sw6q3a58rGhY5c9iJoHR-25" target="cVDitgE7gGw9NUzEYhYK-96" edge="1">
          <mxGeometry relative="1" as="geometry">
            <mxPoint x="72" y="1289" as="sourcePoint" />
            <mxPoint x="160" y="1266" as="targetPoint" />
          </mxGeometry>
        </mxCell>
        <mxCell id="Sw6q3a58rGhY5c9iJoHR-25" value="usesProgram" style="rhombus;fillColor=#fff2cc;strokeColor=#d6b656;" parent="1" vertex="1">
          <mxGeometry x="113.25" y="1125" width="121.75" height="60" as="geometry" />
        </mxCell>
        <mxCell id="Sw6q3a58rGhY5c9iJoHR-26" style="rounded=0;orthogonalLoop=1;jettySize=auto;endArrow=none;startFill=0;" parent="1" source="Sw6q3a58rGhY5c9iJoHR-21" target="Sw6q3a58rGhY5c9iJoHR-25" edge="1">
          <mxGeometry relative="1" as="geometry">
            <mxPoint x="116" y="1217" as="sourcePoint" />
            <mxPoint x="160" y="1231" as="targetPoint" />
          </mxGeometry>
        </mxCell>
        <mxCell id="Sw6q3a58rGhY5c9iJoHR-28" value="hash" style="ellipse;fontStyle=4" parent="1" vertex="1">
          <mxGeometry x="-121.41999999999999" y="995" width="120" height="30" as="geometry" />
        </mxCell>
        <mxCell id="Sw6q3a58rGhY5c9iJoHR-29" style="rounded=0;orthogonalLoop=1;jettySize=auto;endArrow=none;startFill=0;" parent="1" source="Sw6q3a58rGhY5c9iJoHR-28" target="Sw6q3a58rGhY5c9iJoHR-21" edge="1">
          <mxGeometry relative="1" as="geometry">
            <mxPoint x="216.58" y="1044" as="sourcePoint" />
            <mxPoint x="320.58000000000004" y="1125" as="targetPoint" />
          </mxGeometry>
        </mxCell>
        <mxCell id="Sw6q3a58rGhY5c9iJoHR-30" value="(1,*)" style="edgeLabel;align=center;verticalAlign=middle;resizable=0;points=[];" parent="1" vertex="1" connectable="0">
          <mxGeometry x="174.12193884588717" y="1200.0004344819158" as="geometry">
            <mxPoint x="1" y="-1" as="offset" />
          </mxGeometry>
        </mxCell>
        <mxCell id="Sw6q3a58rGhY5c9iJoHR-31" value="(1,*)" style="edgeLabel;align=center;verticalAlign=middle;resizable=0;points=[];" parent="1" vertex="1" connectable="0">
          <mxGeometry x="146.25325433820126" y="1079.9989301491587" as="geometry">
            <mxPoint x="4" y="1" as="offset" />
          </mxGeometry>
        </mxCell>
      </root>
    </mxGraphModel>
  </diagram>
</mxfile>
